<?xml version="1.0" encoding="UTF-8"?>
<svg id="Layer_1" data-name="Layer 1" xmlns="http://www.w3.org/2000/svg" viewBox="0 0 901.76 978.24">
  <defs>
    <style>
      .cls-1 {
        fill: #00243a;
      }
    </style>
  </defs>
  <g>
    <g>
      <path class="cls-1" d="M187.34,104.26l113.17-68.38s198.94,105.54,198.22,105.54-192.74-77.43-192.74-77.43l-118.65,40.26Z"/>
      <path class="cls-1" d="M187.1,165.73l113.17-68.38s198.94,105.54,198.22,105.54-192.74-77.43-192.74-77.43l-118.65,40.26Z"/>
      <path class="cls-1" d="M187.58,227.67l113.17-68.38s198.94,105.54,198.22,105.54-192.74-77.43-192.74-77.43l-118.65,40.26Z"/>
      <path class="cls-1" d="M186.86,290.09l113.17-68.38s198.94,105.54,198.22,105.54-192.74-77.43-192.74-77.43l-118.65,40.26Z"/>
      <path class="cls-1" d="M186.86,352.04l113.17-68.38s198.94,105.54,198.22,105.54-192.74-77.43-192.74-77.43l-118.65,40.26Z"/>
      <path class="cls-1" d="M187.34,413.03l113.17-68.38s198.94,105.54,198.22,105.54-192.74-77.43-192.74-77.43l-118.65,40.26Z"/>
      <path class="cls-1" d="M187.34,475.93l113.17-68.38s198.94,105.54,198.22,105.54-192.74-77.43-192.74-77.43l-118.65,40.26Z"/>
      <path class="cls-1" d="M187.82,537.87l113.17-68.38s198.94,105.54,198.22,105.54-192.74-77.43-192.74-77.43l-118.65,40.26Z"/>
    </g>
    <g>
      <polygon class="cls-1" points="513.58 261.18 574.58 224.49 683.22 281.91 577.91 239.98 513.58 261.18"/>
      <polygon class="cls-1" points="513.82 296.45 574.82 259.75 683.46 317.17 578.15 275.24 513.82 296.45"/>
      <polygon class="cls-1" points="514.06 331.71 575.05 295.01 683.7 352.43 578.39 310.5 514.06 331.71"/>
      <polygon class="cls-1" points="513.58 366.33 574.58 329.64 683.22 387.06 577.91 345.13 513.58 366.33"/>
      <polygon class="cls-1" points="513.82 401.59 574.82 364.9 683.46 422.32 578.15 380.39 513.82 401.59"/>
      <polygon class="cls-1" points="514.06 436.85 575.05 400.16 683.7 457.58 578.39 415.65 514.06 436.85"/>
      <polygon class="cls-1" points="513.58 472.43 574.58 435.74 683.22 493.16 577.91 451.23 513.58 472.43"/>
      <polygon class="cls-1" points="513.82 507.69 574.82 471 683.46 528.42 578.15 486.49 513.82 507.69"/>
      <polygon class="cls-1" points="514.06 542.95 575.05 506.26 683.7 563.68 578.39 521.75 514.06 542.95"/>
      <polygon class="cls-1" points="514.06 578.53 575.05 541.84 683.7 599.26 578.39 557.33 514.06 578.53"/>
    </g>
    <path class="cls-1" d="M434.49,597.52c136.61,0,258.85,25.43,340.7,65.47-69.32-52.99-194.06-88.34-336.44-88.34-132.59,0-249.88,30.66-321.37,77.67,80.87-33.83,193.07-54.8,317.11-54.8Z"/>
  </g>
  <g>
    <g>
      <path class="cls-1" d="M27.61,733.06c0-14.49,5-26.58,15-36.27,9.99-9.69,22.46-14.53,37.4-14.53s26.75,4.91,36.77,14.74c10.02,9.83,15.03,21.85,15.03,36.07s-5.05,26.74-15.16,36.73c-10.11,10-22.46,14.99-37.07,14.99s-26.85-5-36.9-14.99c-10.05-10-15.08-22.24-15.08-36.73ZM42.6,733.23c0,14.27,3.39,25.81,10.16,34.61,6.77,8.8,15.66,13.2,26.65,13.2s20.11-4.5,27.03-13.49c6.92-9,10.37-20.21,10.37-33.65,0-14.44-3.39-26.03-10.16-34.77-6.78-8.75-15.55-13.12-26.32-13.12-11.44,0-20.59,4.3-27.45,12.91-6.86,8.61-10.29,20.05-10.29,34.32Z"/>
      <path class="cls-1" d="M225.39,683.25v29.15h-2.75c-2.27-9.05-5.9-15.71-10.88-19.99-4.99-4.27-11.64-6.41-19.95-6.41-10.79,0-19.34,4-25.65,11.99-6.31,8-9.47,18.66-9.47,31.99,0,14.6,3.32,26.36,9.98,35.28,6.66,8.91,15.37,13.37,26.15,13.37,14.93,0,25.95-7.16,33.06-21.49l2.51,2.42c-3.18,7.77-8.31,13.92-15.4,18.45-7.09,4.53-15.15,6.79-24.21,6.79-8.57,0-16.5-2.08-23.8-6.25-7.3-4.16-12.93-9.9-16.89-17.2-3.96-7.3-5.94-15.7-5.94-25.2,0-15.55,4.64-28.42,13.92-38.61,9.28-10.19,20.98-15.28,35.11-15.28,4.74,0,10.76.86,18.04,2.58,4.1,1,6.93,1.5,8.49,1.5,2.43,0,4.13-1.03,5.1-3.08h2.59Z"/>
      <path class="cls-1" d="M284.02,721.65h2.32v23.74h-2.32c-.87-4.16-1.92-6.77-3.15-7.83-1.23-1.06-3.93-1.58-8.08-1.58h-19.94v34.98c0,2.44.44,4.16,1.33,5.16.89,1,2.41,1.5,4.56,1.5h14.04c5.02,0,8.49-.33,10.41-1,1.92-.67,3.54-1.9,4.86-3.71,1.33-1.8,2.74-4.73,4.25-8.79h2.32l-3.69,18.24h-57.78v-2.83c3.6,0,6.02-1.12,7.25-3.38,1.23-2.25,1.85-6.24,1.85-11.97v-61.11c0-5.95-.64-10.03-1.92-12.25-1.27-2.22-3.67-3.34-7.18-3.34v-2.83h57.78v16.33h-1.5c-.82-4.66-1.99-7.76-3.52-9.29-1.53-1.53-4.84-2.29-9.95-2.29h-23.11v41.81h22.47c3.06,0,5.15-.67,6.27-2,1.12-1.33,1.93-3.86,2.43-7.58Z"/>
      <path class="cls-1" d="M353.5,782.37v-2.83c5.39,0,8.08-1.95,8.08-5.85,0-1.11-.24-2.37-.72-3.76l-8.73-27.13h-30.16l-6.41,19.62c-1.6,4.95-2.4,8.54-2.4,10.77,0,4.12,2.48,6.23,7.43,6.34v2.83h-24.27v-2.83c3.47-.5,6.17-1.7,8.1-3.59,1.92-1.89,3.88-5.82,5.85-11.77l25.98-80.59h9.67l27.28,84.18c1.6,4.95,3.27,8.15,5.01,9.6,1.74,1.45,4.53,2.17,8.38,2.17v2.83h-33.08ZM323.71,736.81h26.5l-13.32-41.4-13.17,41.4Z"/>
      <path class="cls-1" d="M461.79,687.5v-2.83h29.49v2.83c-4.72,0-8,1.11-9.83,3.33-1.83,2.22-2.75,6.25-2.75,12.08v79.46h-2.99l-69.22-84.96v68.62c0,4.84.99,8.3,2.96,10.38,1.97,2.08,5.26,3.13,9.87,3.13v2.83h-29.65v-2.83c4.72,0,7.91-1.24,9.58-3.71,1.67-2.47,2.5-6.82,2.5-13.05v-57.19c0-6.17-1.12-10.6-3.37-13.3-2.25-2.7-5.96-4.29-11.12-4.79v-2.83h25.08l61.38,76.05v-57.14c0-6-.85-10.17-2.54-12.54-1.69-2.36-4.82-3.54-9.37-3.54Z"/>
    </g>
    <g>
      <path class="cls-1" d="M576.43,685.77v4.51c-5.51.54-8.26,3.21-8.26,8.02,0,2.32.62,5.22,1.86,8.69l18.79,51.27,16.53-48.64c1.7-4.89,2.56-8.58,2.56-11.07,0-4.89-3.63-7.65-10.89-8.27v-4.51h30.94v4.51c-5.05.54-8.56,1.7-10.54,3.48-1.98,1.79-3.86,5.26-5.65,10.43l-27.24,79.51h-3.99l-27-75.4c-2.72-7.57-5.07-12.39-7.05-14.48-1.98-2.09-5.57-3.27-10.77-3.54v-4.51h40.71Z"/>
      <path class="cls-1" d="M663.9,684.67v2.83c-4.16,0-7.05,1.14-8.66,3.42-1.61,2.28-2.42,6.34-2.42,12.17v60.94c0,5.84.81,9.88,2.42,12.13,1.61,2.25,4.5,3.38,8.66,3.38v2.83h-35.15v-2.83c4.28,0,7.19-1.11,8.75-3.33,1.55-2.22,2.33-6.28,2.33-12.17v-60.94c0-6-.76-10.1-2.29-12.3-1.53-2.2-4.46-3.29-8.79-3.29v-2.83h35.15Z"/>
      <path class="cls-1" d="M722.99,721.65h2.42v23.74h-2.42c-.9-4.16-2-6.77-3.28-7.83-1.28-1.06-4.08-1.58-8.41-1.58h-20.73v34.98c0,2.44.46,4.16,1.39,5.16.93,1,2.5,1.5,4.74,1.5h14.6c5.22,0,8.83-.33,10.83-1,1.99-.67,3.68-1.9,5.05-3.71,1.38-1.8,2.85-4.73,4.42-8.79h2.42l-3.84,18.24h-60.07v-2.83c3.75,0,6.26-1.12,7.54-3.38,1.28-2.25,1.92-6.24,1.92-11.97v-61.11c0-5.95-.66-10.03-1.99-12.25-1.33-2.22-3.81-3.34-7.46-3.34v-2.83h60.07v16.33h-1.56c-.85-4.66-2.07-7.76-3.66-9.29-1.59-1.53-5.04-2.29-10.34-2.29h-24.03v41.81h23.37c3.18,0,5.36-.67,6.52-2,1.16-1.33,2.01-3.86,2.53-7.58Z"/>
      <path class="cls-1" d="M864.96,684.67v2.83c-3.43.28-6.29,1.87-8.58,4.79-2.29,2.91-4.58,7.93-6.86,15.03l-24.59,76.38h-2.71l-23.82-72.12-23.16,72.12h-2.49l-26.68-80.63c-1.49-4.44-2.82-7.73-3.99-9.87-1.17-2.14-2.42-3.62-3.77-4.46-1.34-.83-3.7-1.25-7.08-1.25v-2.83h32.41v2.83c-5.13.67-7.7,2.77-7.7,6.32,0,1.44.37,3.27,1.12,5.49l20.48,62.07,18.55-56.81-1.93-6.33c-1.24-3.94-2.75-6.72-4.53-8.33-1.78-1.61-4.34-2.42-7.65-2.42v-2.83h31.96v2.83c-5.66,0-8.48,1.95-8.48,5.84,0,1.61.4,3.67,1.19,6.17l20.44,61.88,17.93-54.71c1.44-4.39,2.16-8,2.16-10.84,0-5.67-2.91-8.5-8.73-8.5v-2.67h26.53Z"/>
    </g>
  </g>
  <g>
    <path class="cls-1" d="M284.61,859.03v70.86h-9.51v-31.07h-37.05v31.07h-9.51v-70.86h9.51v30.68h37.05v-30.68h9.51Z"/>
    <path class="cls-1" d="M328.52,894.51c0-4.9.93-9.54,2.79-13.92,1.86-4.38,4.46-8.25,7.79-11.62,3.33-3.36,7.17-5.99,11.52-7.89,4.34-1.89,9.03-2.84,14.06-2.84s9.54.95,13.92,2.84c4.38,1.9,8.25,4.53,11.61,7.89,3.36,3.37,5.99,7.24,7.89,11.62,1.89,4.38,2.84,9.05,2.84,14.02s-.95,9.64-2.84,14.02c-1.89,4.38-4.51,8.22-7.84,11.52-3.33,3.3-7.19,5.88-11.57,7.74s-9.05,2.79-14.02,2.79-9.72-.91-14.06-2.74c-4.35-1.83-8.19-4.39-11.52-7.69-3.33-3.3-5.93-7.12-7.79-11.47-1.86-4.34-2.79-9.1-2.79-14.26ZM338.32,894.51c0,3.79.67,7.3,2.01,10.54,1.34,3.24,3.24,6.09,5.69,8.58,2.45,2.48,5.26,4.43,8.43,5.83,3.17,1.41,6.62,2.11,10.34,2.11s7.17-.7,10.34-2.11c3.17-1.4,5.94-3.33,8.33-5.78,2.38-2.45,4.26-5.31,5.63-8.58,1.37-3.27,2.06-6.76,2.06-10.49s-.69-7.32-2.06-10.59c-1.37-3.27-3.25-6.16-5.63-8.67-2.39-2.51-5.19-4.48-8.43-5.88-3.24-1.4-6.68-2.11-10.34-2.11s-7.2.72-10.44,2.16c-3.23,1.44-6.04,3.4-8.43,5.88-2.39,2.48-4.23,5.38-5.54,8.67-1.31,3.3-1.96,6.78-1.96,10.44Z"/>
    <path class="cls-1" d="M436.53,859.03h47.14v9.12h-19.01v61.75h-9.51v-61.75h-18.62v-9.12Z"/>
    <path class="cls-1" d="M526.7,859.03h46.07v9.12h-36.56v21.56h32.64v9.21h-32.64v21.86h37.93v9.12h-47.44v-70.86Z"/>
    <path class="cls-1" d="M618.54,859.03h9.51v61.75h35.97v9.12h-45.48v-70.86Z"/>
  </g>
</svg>